<?xml version="1.0" encoding="utf-8"?>
<!-- Generator: Adobe Illustrator 26.5.0, SVG Export Plug-In . SVG Version: 6.00 Build 0)  -->
<svg version="1.1" id="Layer_1" xmlns="http://www.w3.org/2000/svg" xmlns:xlink="http://www.w3.org/1999/xlink" x="0px" y="0px"
	 viewBox="0 0 100 100" style="enable-background:new 0 0 100 100;" xml:space="preserve">
<style type="text/css">
	.st0{fill:url(#SVGID_1_);}
	.st1{filter:url(#Adobe_OpacityMaskFilter);}
	.st2{fill:url(#SVGID_00000040543928864850281030000010544269175872949652_);}
	
		.st3{mask:url(#SVGID_00000173155542277008927470000000063634907021181576_);fill:url(#SVGID_00000162338486473605428800000006369592197537249973_);}
</style>
<radialGradient id="SVGID_1_" cx="16.1139" cy="89.7848" r="105.665" gradientUnits="userSpaceOnUse">
	<stop  offset="0" style="stop-color:#FFDD55"/>
	<stop  offset="0.1" style="stop-color:#FFDD55"/>
	<stop  offset="0.5" style="stop-color:#FF543E"/>
	<stop  offset="1" style="stop-color:#C837AB"/>
</radialGradient>
<path class="st0" d="M99.7,29.4c-0.2-5.3-1.1-9-2.3-12.1c-1.3-3.3-3-6.1-5.8-8.9c-2.8-2.8-5.6-4.5-8.9-5.8
	c-3.2-1.2-6.8-2.1-12.1-2.3C65.3,0.1,63.6,0,50,0C36.4,0,34.7,0.1,29.4,0.3c-5.3,0.2-9,1.1-12.1,2.3c-3.3,1.3-6.1,3-8.9,5.8
	c-2.8,2.8-4.5,5.6-5.8,8.9c-1.2,3.2-2.1,6.8-2.3,12.1C0.1,34.7,0,36.4,0,50s0.1,15.3,0.3,20.6c0.2,5.3,1.1,9,2.3,12.1
	c1.3,3.3,3,6.1,5.8,8.9c2.8,2.8,5.6,4.5,8.9,5.8c3.2,1.2,6.8,2.1,12.1,2.3c5.3,0.2,7,0.3,20.6,0.3c13.6,0,15.3-0.1,20.6-0.3
	c5.3-0.2,9-1.1,12.1-2.3c3.3-1.3,6.1-3,8.9-5.8c2.8-2.8,4.5-5.6,5.8-8.9c1.2-3.2,2.1-6.8,2.3-12.1c0.2-5.3,0.3-7,0.3-20.6
	C100,36.4,99.9,34.7,99.7,29.4z M90.7,70.2c-0.2,4.9-1,7.5-1.7,9.3c-0.9,2.3-2,4-3.7,5.7c-1.7,1.7-3.4,2.8-5.7,3.7
	c-1.8,0.7-4.4,1.5-9.3,1.7C64.9,90.9,63.4,91,50,91s-14.9-0.1-20.2-0.3c-4.9-0.2-7.5-1-9.3-1.7c-2.3-0.9-4-2-5.7-3.7
	c-1.7-1.7-2.8-3.4-3.7-5.7c-0.7-1.8-1.5-4.4-1.7-9.3C9.1,64.9,9,63.4,9,50c0-13.4,0.1-14.9,0.3-20.2c0.2-4.9,1-7.5,1.7-9.3
	c0.9-2.3,2-4,3.7-5.7c1.7-1.7,3.4-2.8,5.7-3.7c1.8-0.7,4.4-1.5,9.3-1.7C35.1,9.1,36.6,9,50,9s14.9,0.1,20.2,0.3
	c4.9,0.2,7.5,1,9.3,1.7c2.3,0.9,4,2,5.7,3.7c1.7,1.7,2.8,3.4,3.7,5.7c0.7,1.8,1.5,4.4,1.7,9.3C90.9,35.1,91,36.6,91,50
	C91,63.4,90.9,64.9,90.7,70.2z M50,24.3c-14.2,0-25.7,11.5-25.7,25.7c0,14.2,11.5,25.7,25.7,25.7S75.7,64.2,75.7,50
	C75.7,35.8,64.2,24.3,50,24.3z M50,66.7c-9.2,0-16.7-7.5-16.7-16.7c0-9.2,7.5-16.7,16.7-16.7S66.7,40.8,66.7,50
	C66.7,59.2,59.2,66.7,50,66.7z M82.7,23.3c0,3.3-2.7,6-6,6c-3.3,0-6-2.7-6-6c0-3.3,2.7-6,6-6C80,17.3,82.7,20,82.7,23.3z"/>
<defs>
	<filter id="Adobe_OpacityMaskFilter" filterUnits="userSpaceOnUse" x="0" y="0" width="100" height="100">
		<feColorMatrix  type="matrix" values="1 0 0 0 0  0 1 0 0 0  0 0 1 0 0  0 0 0 1 0"/>
	</filter>
</defs>
<mask maskUnits="userSpaceOnUse" x="0" y="0" width="100" height="100" id="SVGID_00000009559117407619677790000009091525146143329447_">
	<g class="st1">
		
			<linearGradient id="SVGID_00000071540841978767798920000003640046181154055569_" gradientUnits="userSpaceOnUse" x1="17.3445" y1="5.4899" x2="39.5217" y2="35.7178">
			<stop  offset="0" style="stop-color:#FFFFFF"/>
			<stop  offset="1" style="stop-color:#000000"/>
		</linearGradient>
		<rect x="0" style="fill:url(#SVGID_00000071540841978767798920000003640046181154055569_);" width="100" height="100"/>
	</g>
</mask>
<radialGradient id="SVGID_00000168096172273657389300000015076692949215465663_" cx="3.2075" cy="98.4765" r="37.6462" gradientUnits="userSpaceOnUse">
	<stop  offset="0" style="stop-color:#3771C8"/>
	<stop  offset="0.128" style="stop-color:#3771C8"/>
	<stop  offset="1" style="stop-color:#6600FF"/>
</radialGradient>
<path style="mask:url(#SVGID_00000009559117407619677790000009091525146143329447_);fill:url(#SVGID_00000168096172273657389300000015076692949215465663_);" d="
	M99.7,29.4c-0.2-5.3-1.1-9-2.3-12.1c-1.3-3.3-3-6.1-5.8-8.9c-2.8-2.8-5.6-4.5-8.9-5.8c-3.2-1.2-6.8-2.1-12.1-2.3
	C65.3,0.1,63.6,0,50,0C36.4,0,34.7,0.1,29.4,0.3c-5.3,0.2-9,1.1-12.1,2.3c-3.3,1.3-6.1,3-8.9,5.8c-2.8,2.8-4.5,5.6-5.8,8.9
	c-1.2,3.2-2.1,6.8-2.3,12.1C0.1,34.7,0,36.4,0,50s0.1,15.3,0.3,20.6c0.2,5.3,1.1,9,2.3,12.1c1.3,3.3,3,6.1,5.8,8.9
	c2.8,2.8,5.6,4.5,8.9,5.8c3.2,1.2,6.8,2.1,12.1,2.3c5.3,0.2,7,0.3,20.6,0.3c13.6,0,15.3-0.1,20.6-0.3c5.3-0.2,9-1.1,12.1-2.3
	c3.3-1.3,6.1-3,8.9-5.8c2.8-2.8,4.5-5.6,5.8-8.9c1.2-3.2,2.1-6.8,2.3-12.1c0.2-5.3,0.3-7,0.3-20.6C100,36.4,99.9,34.7,99.7,29.4z
	 M90.7,70.2c-0.2,4.9-1,7.5-1.7,9.3c-0.9,2.3-2,4-3.7,5.7c-1.7,1.7-3.4,2.8-5.7,3.7c-1.8,0.7-4.4,1.5-9.3,1.7
	C64.9,90.9,63.4,91,50,91s-14.9-0.1-20.2-0.3c-4.9-0.2-7.5-1-9.3-1.7c-2.3-0.9-4-2-5.7-3.7c-1.7-1.7-2.8-3.4-3.7-5.7
	c-0.7-1.8-1.5-4.4-1.7-9.3C9.1,64.9,9,63.4,9,50c0-13.4,0.1-14.9,0.3-20.2c0.2-4.9,1-7.5,1.7-9.3c0.9-2.3,2-4,3.7-5.7
	c1.7-1.7,3.4-2.8,5.7-3.7c1.8-0.7,4.4-1.5,9.3-1.7C35.1,9.1,36.6,9,50,9s14.9,0.1,20.2,0.3c4.9,0.2,7.5,1,9.3,1.7
	c2.3,0.9,4,2,5.7,3.7c1.7,1.7,2.8,3.4,3.7,5.7c0.7,1.8,1.5,4.4,1.7,9.3C90.9,35.1,91,36.6,91,50C91,63.4,90.9,64.9,90.7,70.2z
	 M50,24.3c-14.2,0-25.7,11.5-25.7,25.7c0,14.2,11.5,25.7,25.7,25.7S75.7,64.2,75.7,50C75.7,35.8,64.2,24.3,50,24.3z M50,66.7
	c-9.2,0-16.7-7.5-16.7-16.7c0-9.2,7.5-16.7,16.7-16.7S66.7,40.8,66.7,50C66.7,59.2,59.2,66.7,50,66.7z M82.7,23.3c0,3.3-2.7,6-6,6
	c-3.3,0-6-2.7-6-6c0-3.3,2.7-6,6-6C80,17.3,82.7,20,82.7,23.3z"/>
</svg>
