<?xml version="1.0" encoding="utf-8"?>
<!-- Generator: Adobe Illustrator 26.5.0, SVG Export Plug-In . SVG Version: 6.00 Build 0)  -->
<svg version="1.1" id="Layer_1" xmlns="http://www.w3.org/2000/svg" xmlns:xlink="http://www.w3.org/1999/xlink" x="0px" y="0px"
	 viewBox="0 0 100 100" style="enable-background:new 0 0 100 100;" xml:space="preserve">
<style type="text/css">
	.st0{fill:#b5b5b5;}
</style>
<path class="st0" d="M88.6,23.5L88.6,23.5c-2-0.5-4-1.2-5.9-2.2c-3.6-1.8-6.4-4.7-7-5.3c-0.1-0.1-0.2-0.1-0.3-0.2
	c0.1,0.1,0.2,0.2,0.4,0.2l-0.1-0.1C68.8,8,69.7,0,69.7,0H52.5h0v66.4c0,0.9,0,1.8,0,2.7c0,0.3,0,0.5-0.1,0.8
	c-0.1,1.1-0.3,2.2-0.7,3.3c-0.4,1.1-0.9,2.2-1.6,3.2c-1.2,1.8-2.8,3.4-4.7,4.4c-0.2,0.1-0.4,0.2-0.5,0.3c0,0-0.1,0-0.1,0
	c-0.1,0.1-0.3,0.1-0.4,0.2c0,0,0,0,0,0c-0.1,0-0.2,0.1-0.2,0.1c-0.3,0.1-0.5,0.2-0.8,0.3h0C43,82,42.7,82,42.5,82.1
	c-0.8,0.3-1.6,0.5-2.4,0.6c-1.5,0.2-2.9,0.3-4.3,0c-0.7-0.1-1.3-0.3-2-0.5c-0.7-0.2-1.3-0.5-2-0.9c0,0-0.1,0-0.1,0
	c-0.4-0.2-0.7-0.4-1.1-0.6c-0.4-0.2-0.7-0.4-1.1-0.7c-0.1-0.1-0.2-0.1-0.3-0.2c-0.2-0.1-0.4-0.3-0.6-0.5c-0.6-0.5-1.2-1-1.7-1.6
	c-0.2-0.3-0.5-0.6-0.7-0.9c0,0,0,0,0,0c-2.3-3.2-2.8-6.9-2.8-9.7c0.6-5.2,2.6-8.1,6.5-11.1c5.5-4,12.4-1.7,12.4-1.7V37.1
	c-1.6-0.3-3.3-0.4-5-0.3c0,0,0,0,0,0v0c-3.7,0.1-7.5,0.8-10.9,2.3c-3.2,1.2-6.2,3-8.8,5.2c-0.4,0.3-0.7,0.7-1.1,1
	c-0.4,0.3-0.7,0.7-1,1c-1.4,1.4-2.6,2.9-3.7,4.5c-0.3,0.4-0.5,0.8-0.8,1.2c-0.3,0.4-0.5,0.8-0.7,1.2c0,0.1-0.1,0.2-0.2,0.3
	c0,0,0,0,0,0c-0.1,0.2-0.3,0.5-0.4,0.8c0,0,0,0,0,0c-0.1,0.2-0.2,0.3-0.3,0.5c0,0.1-0.1,0.2-0.2,0.3c-0.1,0.1-0.1,0.3-0.2,0.4
	c0,0,0,0.1,0,0.1c0,0.1,0,0.1-0.1,0.2c-0.1,0.2-0.2,0.4-0.2,0.6c0,0.1-0.1,0.2-0.1,0.3c0,0,0,0,0,0c0,0,0,0.1,0,0.1
	c0,0.1-0.1,0.3-0.2,0.4c-0.1,0.1-0.1,0.3-0.2,0.4c-0.1,0.3-0.2,0.7-0.3,1.1c0,0,0,0,0,0c-0.1,0.3-0.2,0.7-0.3,1v0
	c-0.1,0.4-0.2,0.7-0.3,1.1c-0.4,1.9-0.8,4.2-0.9,6.8c-0.1,2.2,0.2,4.4,0.5,6.3c0.3,1.4,0.6,2.7,0.9,3.7c0,0,0,0.1,0,0.1
	c0.1,0.4,0.2,0.7,0.3,1c0,0.1,0.1,0.2,0.1,0.2v0c0.4,1.2,2.1,5.1,4.7,8.6c0.8,1,1.6,1.9,2.5,2.8l0,0c1.5,1.5,3.2,3,5,4.2
	c8.4,5.6,17.6,5.3,17.6,5.3c1.6-0.1,7,0,13.1-2.9c6.8-3.2,10.6-7.9,10.6-7.9c0.6-0.7,3.7-4.2,5.8-9.6c1.6-4.1,2.1-9,2.1-10.9V33.4
	c0.2,0.1,3,2,3,2s4,2.6,10.3,4.2c4.5,1.2,10.6,1.4,10.6,1.4V24C92.5,24.1,90.7,24,88.6,23.5z"/>
</svg>
