<?xml version="1.0" encoding="utf-8"?>
<!-- Generator: Adobe Illustrator 26.5.0, SVG Export Plug-In . SVG Version: 6.00 Build 0)  -->
<svg version="1.1" id="Layer_1" xmlns="http://www.w3.org/2000/svg" xmlns:xlink="http://www.w3.org/1999/xlink" x="0px" y="0px"
	 viewBox="0 0 100 100" style="enable-background:new 0 0 100 100;" xml:space="preserve">
<style type="text/css">
	.st0{fill:#b5b5b5;}
	.st1{fill:#000000;}
</style>
<path class="st0" d="M97.9,25.9c-1.1-4.3-4.5-7.7-8.8-8.8C81.3,15,50,15,50,15s-31.3,0-39.1,2.1c-4.3,1.1-7.7,4.5-8.8,8.8
	C0,33.7,0,50,0,50s0,16.3,2.1,24.1c1.2,4.3,4.5,7.7,8.8,8.8C18.7,85,50,85,50,85s31.3,0,39.1-2.1c4.3-1.2,7.7-4.5,8.8-8.8
	C100,66.3,100,50,100,50S100,33.7,97.9,25.9"/>
<polygon class="st1" points="40,65 66,50 40,35 "/>
</svg>
